<svg width="166" height="22" viewBox="0 0 166 22" fill="none" xmlns="http://www.w3.org/2000/svg">
<path d="M11.3373 15.2574L15.092 11.5027L20.2363 16.647C20.8288 17.2395 20.8288 18.2001 20.2363 18.7926L18.6271 20.4017C18.0347 20.9942 17.0741 20.9942 16.4816 20.4017L11.3373 15.2574Z" fill="#FF5722"/>
<path d="M0.444393 4.36452C-0.148083 3.77204 -0.148084 2.81145 0.444393 2.21897L2.05355 0.609816C2.64603 0.0173397 3.60662 0.0173397 4.1991 0.609816L6.0883 2.49902L2.3336 6.25372L0.444393 4.36452Z" fill="#FF5722"/>
<path d="M4.19906 20.4018C3.60659 20.9942 2.64599 20.9942 2.05352 20.4018L0.444357 18.7926C-0.148119 18.2001 -0.148119 17.2395 0.444357 16.647L5.6171 11.4743L9.37181 15.229L4.19906 20.4018Z" fill="#FF5722"/>
<path d="M4.37306 8.26159C3.78135 7.66989 3.78135 6.71056 4.37306 6.11886L5.98015 4.51181C6.57186 3.92011 7.53121 3.92011 8.12293 4.51181L13.025 9.41378C13.6167 10.0055 13.6167 10.9648 13.025 11.5565L11.4179 13.1636C10.8262 13.7553 9.86685 13.7553 9.27514 13.1636L4.37306 8.26159Z" fill="#2D4059"/>
<path d="M11.4315 13.1641C10.8398 13.7558 9.88047 13.7558 9.28875 13.1641L7.68167 11.5571C7.08995 10.9654 7.08995 10.006 7.68167 9.41432L16.487 0.609233C17.0787 0.0175338 18.038 0.0175338 18.6297 0.609233L20.2368 2.21628C20.8285 2.80798 20.8285 3.76732 20.2368 4.35902L11.4315 13.1641Z" fill="#2D4059"/>
<path d="M91.5532 0.579058H106.753V4.80618H96.591V8.59902H104.177V12.5366H96.591V20.8461H91.5532V0.579058Z" fill="#2D4059"/>
<path d="M117.105 20.8461L116.787 19.051C116.266 19.6494 115.725 20.1319 115.165 20.4987C114.625 20.8654 113.892 21.0488 112.965 21.0488C112.116 21.0488 111.334 20.8944 110.62 20.5855C109.925 20.2574 109.365 19.7845 108.941 19.1668C108.516 18.5492 108.304 17.7964 108.304 16.9085C108.304 15.7118 108.728 14.7274 109.578 13.9553C110.427 13.1832 111.768 12.691 113.602 12.4787L116.787 12.1313V11.2916C116.787 11.0214 116.652 10.7512 116.381 10.481C116.111 10.1914 115.696 10.0467 115.136 10.0467C114.635 10.0467 114.2 10.1818 113.834 10.452C113.467 10.7222 113.216 11.0986 113.081 11.5812L109.056 10.1335C109.5 8.82099 110.253 7.83659 111.315 7.18032C112.376 6.50475 113.708 6.16697 115.31 6.16697C117.337 6.16697 118.881 6.66882 119.943 7.67252C121.004 8.67622 121.535 10.0563 121.535 11.8128V20.8461H117.105ZM116.787 14.7949L114.528 15.0555C114.085 15.1134 113.747 15.2582 113.515 15.4898C113.284 15.7214 113.168 16.0013 113.168 16.3294C113.168 16.6576 113.303 16.9278 113.573 17.1401C113.863 17.3524 114.258 17.4586 114.76 17.4586C115.165 17.4586 115.513 17.3717 115.802 17.198C116.111 17.005 116.353 16.7348 116.526 16.3873C116.7 16.0399 116.787 15.6056 116.787 15.0845V14.7949Z" fill="#2D4059"/>
<path d="M124.263 0H129.069V11.4943H129.677L133.673 6.36964H139.84L133.876 13.4631L139.898 20.8461H133.731L129.648 15.4319H129.069V20.8461H124.263V0Z" fill="#2D4059"/>
<path d="M142.84 6.36964V2.31623H147.675V6.36964H150.426V10.5968H147.675V15.1134C147.675 15.6539 147.82 16.0399 148.11 16.2715C148.399 16.5032 148.756 16.6286 149.181 16.6479C149.606 16.6479 150.03 16.5997 150.455 16.5032V20.6724C149.374 20.8654 148.37 20.9233 147.444 20.8461C146.517 20.7689 145.707 20.5276 145.012 20.1223C144.336 19.6976 143.805 19.08 143.419 18.2693C143.033 17.4393 142.84 16.3873 142.84 15.1134V10.5968H140.785V6.36964H142.84Z" fill="#2D4059"/>
<path d="M159.138 0.376388C160.47 0.376388 161.647 0.617662 162.67 1.10021C163.713 1.56346 164.523 2.25833 165.102 3.18482C165.701 4.09201 166 5.22117 166 6.57231C166 7.80764 165.72 8.84994 165.16 9.69923C164.601 10.5485 163.838 11.2048 162.873 11.668C161.908 12.112 160.798 12.3436 159.543 12.3629L159.399 14.5344H154.911L154.766 9.06226H156.561C157.218 9.06226 157.816 9.02366 158.356 8.94645C158.897 8.86924 159.35 8.74378 159.717 8.57006C160.103 8.37704 160.393 8.11647 160.586 7.78833C160.798 7.4602 160.904 7.04521 160.904 6.54336C160.885 6.11872 160.798 5.77128 160.644 5.50105C160.489 5.23083 160.267 5.02816 159.978 4.89304C159.708 4.73863 159.37 4.66142 158.964 4.66142C158.289 4.66142 157.787 4.83514 157.459 5.18257C157.131 5.53001 156.967 6.02221 156.967 6.65917H152.189C152.151 5.50105 152.382 4.4491 152.884 3.5033C153.405 2.5382 154.187 1.77578 155.229 1.21602C156.272 0.656266 157.575 0.376388 159.138 0.376388ZM157.198 21.0777C156.291 21.0777 155.558 20.8171 154.998 20.296C154.457 19.7555 154.187 19.1089 154.187 18.3561C154.187 17.5841 154.457 16.9375 154.998 16.4163C155.558 15.8758 156.291 15.6056 157.198 15.6056C158.105 15.6056 158.829 15.8758 159.37 16.4163C159.93 16.9375 160.209 17.5841 160.209 18.3561C160.209 19.1089 159.93 19.7555 159.37 20.296C158.829 20.8171 158.105 21.0777 157.198 21.0777Z" fill="#2D4059"/>
<path d="M33.8956 0.579058H38.9334V14.2738C38.9334 15.7407 38.6439 16.9761 38.0648 17.9798C37.505 18.9835 36.704 19.7459 35.6617 20.267C34.6387 20.7882 33.4516 21.0488 32.1005 21.0488C30.3054 21.0488 28.7999 20.6145 27.5838 19.7459C26.3871 18.858 25.6054 17.5648 25.2387 15.8662L29.8422 14.9687C29.9194 15.374 30.0545 15.7214 30.2475 16.011C30.4598 16.2812 30.7108 16.4839 31.0003 16.619C31.2898 16.7541 31.5986 16.8216 31.9268 16.8216C32.3128 16.8216 32.6506 16.7348 32.9401 16.5611C33.249 16.3874 33.4806 16.1268 33.635 15.7793C33.8087 15.4319 33.8956 15.0169 33.8956 14.5344V0.579058Z" fill="#FF5722"/>
<path d="M50.1533 20.8461L49.8348 19.051C49.3137 19.6494 48.7732 20.1319 48.2135 20.4987C47.673 20.8654 46.9395 21.0488 46.013 21.0488C45.1638 21.0488 44.382 20.8944 43.6679 20.5855C42.973 20.2574 42.4132 19.7845 41.9886 19.1668C41.5639 18.5492 41.3516 17.7964 41.3516 16.9085C41.3516 15.7118 41.7763 14.7274 42.6256 13.9553C43.4748 13.1832 44.8163 12.691 46.65 12.4787L49.8348 12.1313V11.2916C49.8348 11.0214 49.6997 10.7512 49.4295 10.481C49.1593 10.1914 48.7443 10.0467 48.1845 10.0467C47.6827 10.0467 47.2484 10.1818 46.8816 10.452C46.5149 10.7222 46.264 11.0986 46.1289 11.5812L42.1044 10.1335C42.5483 8.82099 43.3011 7.83659 44.3627 7.18032C45.4243 6.50476 46.7562 6.16697 48.3582 6.16697C50.3849 6.16697 51.9291 6.66882 52.9907 7.67252C54.0523 8.67622 54.5831 10.0563 54.5831 11.8128V20.8461H50.1533ZM49.8348 14.7949L47.5765 15.0555C47.1326 15.1134 46.7948 15.2582 46.5632 15.4898C46.3315 15.7214 46.2157 16.0013 46.2157 16.3294C46.2157 16.6576 46.3508 16.9278 46.6211 17.1401C46.9106 17.3524 47.3063 17.4586 47.8081 17.4586C48.2135 17.4586 48.5609 17.3717 48.8504 17.198C49.1593 17.005 49.4005 16.7348 49.5743 16.3874C49.748 16.0399 49.8348 15.6056 49.8348 15.0845V14.7949Z" fill="#FF5722"/>
<path d="M57.3112 0H62.1174V11.4943H62.7254L66.7209 6.36964H72.8879L66.9236 13.4631L72.9458 20.8461H66.7788L62.6965 15.4319H62.1174V20.8461H57.3112V0Z" fill="#FF5722"/>
<path d="M81.5052 21.0488C80.0769 21.0488 78.803 20.7496 77.6835 20.1512C76.5639 19.5529 75.6761 18.6939 75.0198 17.5744C74.3828 16.4549 74.0643 15.1327 74.0643 13.6079C74.0643 12.083 74.3925 10.7705 75.0487 9.67027C75.705 8.55076 76.5929 7.69182 77.7124 7.09346C78.8512 6.4758 80.1348 6.16697 81.5631 6.16697C82.9915 6.16697 84.2751 6.4758 85.4139 7.09346C86.5527 7.69182 87.4502 8.55076 88.1065 9.67027C88.7628 10.7705 89.0909 12.083 89.0909 13.6079C89.0909 15.1327 88.7531 16.4549 88.0776 17.5744C87.4213 18.6939 86.5141 19.5529 85.356 20.1512C84.2172 20.7496 82.9336 21.0488 81.5052 21.0488ZM81.5052 16.7348C81.9299 16.7348 82.3256 16.619 82.6923 16.3874C83.0784 16.1557 83.3872 15.8083 83.6188 15.345C83.8504 14.8818 83.9662 14.3027 83.9662 13.6079C83.9662 12.913 83.8504 12.3339 83.6188 11.8707C83.3872 11.4074 83.088 11.06 82.7213 10.8284C82.3545 10.5968 81.9685 10.481 81.5631 10.481C81.1192 10.481 80.7139 10.5968 80.3471 10.8284C79.9997 11.06 79.7198 11.4074 79.5075 11.8707C79.2952 12.3339 79.189 12.913 79.189 13.6079C79.189 14.3027 79.2855 14.8818 79.4785 15.345C79.6909 15.8083 79.9707 16.1557 80.3182 16.3874C80.6849 16.619 81.0806 16.7348 81.5052 16.7348Z" fill="#FF5722"/>
</svg>
